<?xml version="1.0" standalone="no"?>
<!DOCTYPE svg PUBLIC "-//W3C//DTD SVG 20010904//EN"
 "http://www.w3.org/TR/2001/REC-SVG-20010904/DTD/svg10.dtd">
<svg version="1.0" xmlns="http://www.w3.org/2000/svg"
 width="500.000000pt" height="500.000000pt" viewBox="0 0 500.000000 500.000000"
 preserveAspectRatio="xMidYMid meet">

<g transform="translate(0.000000,500.000000) scale(0.100000,-0.100000)"
fill="#000000" stroke="none">
<path d="M2913 2808 c-32 -41 -123 -178 -123 -185 0 -8 221 -97 225 -91 51 68
132 199 126 202 -5 3 -49 21 -97 40 -49 19 -96 37 -105 40 -9 4 -20 1 -26 -6z
m13 -75 c-2 -10 -10 -44 -16 -75 -8 -38 -16 -58 -26 -58 -17 0 -18 16 -3 78
16 70 17 72 34 72 11 0 15 -6 11 -17z m108 5 c3 -7 7 -41 10 -75 5 -52 3 -63
-9 -63 -8 0 -15 6 -15 14 0 29 -53 29 -64 0 -5 -13 -36 -21 -36 -9 0 3 16 37
35 75 26 52 40 70 55 70 12 0 22 -6 24 -12z"/>
<path d="M2993 2695 c-7 -16 -8 -27 -1 -31 14 -9 20 1 16 30 l-3 26 -12 -25z"/>
<path d="M2775 2748 c-2 -7 -10 -43 -18 -80 -13 -63 -13 -68 3 -68 12 0 20 16
30 68 7 37 15 73 18 80 2 6 -3 12 -12 12 -9 0 -18 -6 -21 -12z"/>
<path d="M1958 2675 c-15 -72 -14 -75 3 -75 13 0 19 7 19 24 0 37 17 40 29 6
5 -17 17 -30 25 -30 19 0 20 13 6 41 -8 15 -7 23 5 35 33 33 11 74 -40 74 -30
0 -31 -1 -47 -75z m67 45 c8 -13 -14 -42 -25 -35 -10 6 -1 45 11 45 4 0 11 -5
14 -10z"/>
<path d="M2100 2700 c-25 -25 -27 -85 -4 -94 28 -11 64 -6 64 7 0 8 -10 13
-21 13 -12 -1 -24 5 -26 12 -3 7 4 12 19 12 28 0 48 17 48 41 0 33 -50 39 -80
9z m45 -19 c-3 -6 -14 -11 -23 -11 -15 1 -15 2 2 15 21 16 32 13 21 -4z"/>
<path d="M2217 2713 c-2 -5 -7 -25 -11 -46 -4 -21 -10 -45 -13 -54 -4 -11 -1
-14 12 -12 11 3 22 19 29 43 6 22 17 41 25 44 11 4 12 -5 7 -42 -6 -37 -4 -46
7 -46 9 0 19 18 26 45 7 30 17 45 27 45 16 0 16 -13 -2 -73 -5 -14 -1 -18 12
-15 26 5 42 85 21 105 -11 11 -20 12 -34 4 -14 -7 -23 -7 -32 2 -9 9 -16 9
-31 -1 -12 -7 -20 -8 -20 -2 0 12 -17 14 -23 3z"/>
<path d="M2410 2698 c-24 -26 -24 -75 1 -91 29 -18 68 0 77 36 18 62 -36 100
-78 55z m50 -32 c0 -28 -24 -53 -35 -36 -4 6 -4 22 -1 36 8 31 36 32 36 0z"/>
<path d="M2520 2692 c0 -54 12 -92 29 -92 9 0 28 22 44 53 31 60 32 67 14 67
-8 0 -23 -19 -33 -42 l-19 -43 -5 39 c-6 48 -30 62 -30 18z"/>
<path d="M2652 2707 c-22 -26 -32 -68 -22 -88 8 -15 20 -19 47 -16 35 2 37 4
48 54 13 56 10 69 -11 52 -8 -7 -14 -7 -19 1 -9 14 -30 13 -43 -3z m48 -36 c0
-11 -8 -27 -17 -37 -17 -17 -18 -17 -21 5 -2 12 -1 29 2 37 8 21 36 17 36 -5z"/>
</g>
</svg>
